<svg width="229" height="367" viewBox="0 0 229 367" fill="none" xmlns="http://www.w3.org/2000/svg">
<path fill-rule="evenodd" clip-rule="evenodd" d="M109.226 7.19562C96.2462 29.0113 2.35454 184.469 1.59462 185.402C0.35203 186.928 1.13013 187.847 6.08687 190.71C8.46206 192.081 33.8402 207.043 62.4844 223.96L114.563 254.717L170.2 221.882C200.799 203.824 226.382 188.545 227.049 187.929C228.045 187.011 225.077 181.534 210.529 157.447C200.777 141.298 175.471 99.3451 154.296 64.2199C133.121 29.0938 115.326 0.198505 114.752 0.00807042C114.178 -0.183271 111.692 3.0514 109.226 7.19562ZM113.575 70.9449V134.867L107.44 137.689C104.064 139.24 92.9184 144.299 82.6695 148.928C63.5925 157.546 26.6137 174.376 14.5978 179.91C10.9045 181.61 7.69669 182.816 7.46944 182.589C7.24219 182.362 21.2789 158.579 38.6615 129.739C56.0451 100.898 79.1717 62.5277 90.0551 44.47C110.977 9.75741 112.67 7.02241 113.225 7.02241C113.418 7.02241 113.575 35.788 113.575 70.9449ZM144.975 54.1776C159.83 78.8661 183.231 117.753 196.978 140.592C210.724 163.432 221.804 182.284 221.601 182.487C221.397 182.69 217.359 181.106 212.625 178.967C190.93 169.158 132.442 142.572 126.447 139.792C122.778 138.091 119.506 136.693 119.176 136.686C116.01 136.612 116.01 136.609 115.662 70.808C115.365 14.6035 115.488 6.73948 116.644 7.92924C117.371 8.67738 130.12 29.4892 144.975 54.1776ZM113.575 194.38C113.575 243.914 113.419 250.187 112.198 249.72C110.792 249.182 74.3331 227.762 30.496 201.72L6.04687 187.196L10.0437 185.171C12.2417 184.059 32.2431 174.878 54.4907 164.771C108.997 140.008 112.107 138.613 112.893 138.559C113.268 138.534 113.575 163.653 113.575 194.38ZM125.96 142.686C130.897 144.982 143.527 150.745 154.025 155.493C164.524 160.242 175.978 165.433 179.477 167.03C182.977 168.627 193.817 173.546 203.566 177.962C213.314 182.377 221.619 186.265 222.019 186.601C222.42 186.937 221.806 187.826 220.655 188.575C215.256 192.09 116.87 250.053 116.302 250.053C115.947 250.053 115.699 224.958 115.751 194.284C115.804 163.611 116.103 138.515 116.416 138.514C116.729 138.514 121.024 140.391 125.96 142.686ZM0.139328 206.613C0.41657 207.333 3.69258 212.199 7.42036 217.425C13.9115 226.526 24.1776 240.992 62.4317 294.941C71.9806 308.408 81.4005 321.67 83.3649 324.413C85.3283 327.157 92.9456 337.868 100.292 348.218C107.638 358.567 114.143 367.019 114.748 367C115.353 366.981 119.734 361.403 124.483 354.604C133.284 342.008 160.184 304.07 177.72 279.525C187.457 265.897 226.882 210.32 228.531 207.9C229.013 207.192 229.145 206.351 228.826 206.031C228.506 205.712 217.27 211.962 203.86 219.919C190.45 227.877 171.296 239.195 161.297 245.07C151.298 250.946 140.254 257.471 136.755 259.57C133.255 261.67 126.802 265.487 122.414 268.053L114.437 272.719L105.598 267.416C96.8916 262.194 78.4681 251.288 47.2188 232.861C38.4697 227.701 24.923 219.673 17.1139 215.02C1.27011 205.579 -0.618772 204.644 0.139328 206.613ZM24.9485 223.028C32.9476 227.768 46.8552 235.977 55.8542 241.271C64.8532 246.564 81.4196 256.326 92.6684 262.963L113.121 275.03L113.357 317.859C113.487 341.414 113.283 360.665 112.903 360.639C112.523 360.611 109.179 356.225 105.474 350.89C101.768 345.554 92.9384 333.028 85.8528 323.053C78.7663 313.078 60.0901 286.757 44.3491 264.562C28.6081 242.368 14.2242 222.119 12.3844 219.566C9.16653 215.098 8.28299 213.264 9.72284 214.041C10.0982 214.243 16.9493 218.287 24.9485 223.028ZM218.829 216.727C216.7 219.549 197.741 246.244 170.362 284.966C163.309 294.941 151.415 311.672 143.929 322.146C136.445 332.62 127.269 345.571 123.539 350.925C119.808 356.278 116.473 360.666 116.126 360.673C115.291 360.691 115.171 313.027 115.952 291.653L116.569 274.762L135.297 263.728C145.598 257.661 168.751 243.963 186.749 233.289C204.747 222.615 219.828 213.86 220.263 213.832C220.696 213.804 220.052 215.106 218.829 216.727Z" fill="#FFFEE5"/>
</svg>
