<svg width="43" height="42" viewBox="0 0 43 42" fill="none" xmlns="http://www.w3.org/2000/svg">
<path d="M10.0187 12.3667C11.3856 12.3667 12.4939 11.2698 12.4939 9.91667C12.4939 8.56356 11.3856 7.46667 10.0187 7.46667C8.65168 7.46667 7.54346 8.56356 7.54346 9.91667C7.54346 11.2698 8.65168 12.3667 10.0187 12.3667Z" fill="#FFFEE5"/>
<path fill-rule="evenodd" clip-rule="evenodd" d="M2.92422 2.89446C4.87374 0.964821 7.23141 0 9.99736 0C12.7633 0 15.121 0.964821 17.0705 2.89446C19.02 4.82409 19.9947 7.15781 19.9947 9.89559C19.9947 12.6334 19.02 14.9671 17.0705 16.8967C15.121 18.8263 12.7633 19.7912 9.99736 19.7912C7.23141 19.7912 4.87374 18.8263 2.92422 16.8967C0.974701 14.9671 0 12.6334 0 9.89559C0 7.15781 0.974701 4.82409 2.92422 2.89446ZM3.82733 9.91667C3.82733 13.3012 6.59926 16.045 10.0187 16.045C13.4381 16.045 16.21 13.3012 16.21 9.91667C16.21 6.53209 13.4381 3.78835 10.0187 3.78835C6.59926 3.78835 3.82733 6.53209 3.82733 9.91667Z" fill="#FFFEE5"/>
<path d="M35.36 9.91667C35.36 11.2698 34.2517 12.3667 32.8848 12.3667C31.5178 12.3667 30.4096 11.2698 30.4096 9.91667C30.4096 8.56356 31.5178 7.46667 32.8848 7.46667C34.2517 7.46667 35.36 8.56356 35.36 9.91667Z" fill="#FFFEE5"/>
<path fill-rule="evenodd" clip-rule="evenodd" d="M25.9295 2.89446C27.879 0.964821 30.2367 0 33.0026 0C35.7686 0 38.1263 0.964821 40.0758 2.89446C42.0253 4.82409 43 7.15781 43 9.89559C43 12.6334 42.0253 14.9671 40.0758 16.8967C38.1263 18.8263 35.7686 19.7912 33.0026 19.7912C30.2367 19.7912 27.879 18.8263 25.9295 16.8967C23.98 14.9671 23.0053 12.6334 23.0053 9.89559C23.0053 7.15781 23.98 4.82409 25.9295 2.89446ZM32.8848 16.045C29.4654 16.045 26.6934 13.3012 26.6934 9.91667C26.6934 6.53209 29.4654 3.78835 32.8848 3.78835C36.3042 3.78835 39.0761 6.53209 39.0761 9.91667C39.0761 13.3012 36.3042 16.045 32.8848 16.045Z" fill="#FFFEE5"/>
<path d="M32.8848 34.5333C34.2517 34.5333 35.36 33.4364 35.36 32.0833C35.36 30.7302 34.2517 29.6333 32.8848 29.6333C31.5178 29.6333 30.4096 30.7302 30.4096 32.0833C30.4096 33.4364 31.5178 34.5333 32.8848 34.5333Z" fill="#FFFEE5"/>
<path fill-rule="evenodd" clip-rule="evenodd" d="M33.0026 22.2088C30.2367 22.2088 27.879 23.1737 25.9295 25.1033C23.98 27.0329 23.0053 29.3666 23.0053 32.1044C23.0053 34.8422 23.98 37.1759 25.9295 39.1055C27.879 41.0352 30.2367 42 33.0026 42C35.7686 42 38.1263 41.0352 40.0758 39.1055C42.0253 37.1759 43 34.8422 43 32.1044C43 29.3666 42.0253 27.0329 40.0758 25.1033C38.1263 23.1737 35.7686 22.2088 33.0026 22.2088ZM26.6934 32.0833C26.6934 35.4679 29.4654 38.2117 32.8848 38.2117C36.3042 38.2117 39.0761 35.4679 39.0761 32.0833C39.0761 28.6988 36.3042 25.955 32.8848 25.955C29.4654 25.955 26.6934 28.6988 26.6934 32.0833Z" fill="#FFFEE5"/>
<path d="M12.4939 32.0833C12.4939 33.4364 11.3856 34.5333 10.0187 34.5333C8.65168 34.5333 7.54346 33.4364 7.54346 32.0833C7.54346 30.7302 8.65168 29.6333 10.0187 29.6333C11.3856 29.6333 12.4939 30.7302 12.4939 32.0833Z" fill="#FFFEE5"/>
<path fill-rule="evenodd" clip-rule="evenodd" d="M2.92422 25.1033C4.87374 23.1737 7.23141 22.2088 9.99736 22.2088C12.7633 22.2088 15.121 23.1737 17.0705 25.1033C19.02 27.0329 19.9947 29.3666 19.9947 32.1044C19.9947 34.8422 19.02 37.1759 17.0705 39.1055C15.121 41.0352 12.7633 42 9.99736 42C7.23141 42 4.87374 41.0352 2.92422 39.1055C0.974701 37.1759 0 34.8422 0 32.1044C0 29.3666 0.974701 27.0329 2.92422 25.1033ZM10.0187 38.2117C6.59926 38.2117 3.82733 35.4679 3.82733 32.0833C3.82733 28.6988 6.59926 25.955 10.0187 25.955C13.4381 25.955 16.21 28.6988 16.21 32.0833C16.21 35.4679 13.4381 38.2117 10.0187 38.2117Z" fill="#FFFEE5"/>
</svg>
