<svg width="752" height="638" viewBox="0 0 752 638" fill="none" xmlns="http://www.w3.org/2000/svg">
<rect x="-0.500009" y="0.499997" width="112.346" height="264.335" rx="11.5" transform="matrix(-1.71045e-05 1 -1 -6.68888e-06 297.881 1.00172)" stroke="#FFFEE5" stroke-dasharray="12 12"/>
<path d="M164.454 306.155C164.65 306.349 164.966 306.348 165.161 306.153L168.343 302.961C168.539 302.765 168.539 302.448 168.343 302.254C168.148 302.059 167.832 302.06 167.636 302.256L164.808 305.093L161.979 302.273C161.784 302.079 161.468 302.08 161.272 302.276C161.077 302.471 161.077 302.788 161.272 302.983L164.454 306.155ZM164.308 174.947V181.49L165.308 181.487V174.944L164.308 174.947ZM164.308 194.575V207.661L165.308 207.658V194.572L164.308 194.575ZM164.308 220.746V233.832L165.308 233.829V220.743L164.308 220.746ZM164.308 246.917V260.003L165.308 259.999V246.914L164.308 246.917ZM164.308 273.088V286.174L165.308 286.17V273.085L164.308 273.088ZM164.308 299.259V305.802L165.308 305.799V299.256L164.308 299.259ZM164.454 306.155C164.65 306.349 164.966 306.348 165.161 306.153L168.343 302.961C168.539 302.765 168.539 302.448 168.343 302.254C168.148 302.059 167.832 302.06 167.636 302.256L164.808 305.093L161.979 302.273C161.784 302.079 161.468 302.08 161.272 302.276C161.077 302.471 161.077 302.788 161.272 302.983L164.454 306.155ZM164.308 174.947V181.49L165.308 181.487V174.944L164.308 174.947ZM164.308 194.575V207.661L165.308 207.658V194.572L164.308 194.575ZM164.308 220.746V233.832L165.308 233.829V220.743L164.308 220.746ZM164.308 246.917V260.003L165.308 259.999V246.914L164.308 246.917ZM164.308 273.088V286.174L165.308 286.17V273.085L164.308 273.088ZM164.308 299.259V305.802L165.308 305.799V299.256L164.308 299.259Z" fill="#FFFEE5"/>
<path d="M602.737 487.143L602.718 487.564L603.306 487.564L603.306 487.129L602.737 487.143ZM603.139 305.598C602.917 305.439 602.557 305.448 602.335 305.618L598.718 308.384C598.496 308.554 598.496 308.82 598.718 308.978C598.94 309.137 599.3 309.128 599.522 308.958L602.737 306.499L605.953 308.796C606.175 308.955 606.535 308.946 606.757 308.776C606.979 308.606 606.979 308.34 606.757 308.181L603.139 305.598ZM543.013 487.564L550.476 487.564L550.515 486.723L543.052 486.723L543.013 487.564ZM565.402 487.564L580.329 487.564L580.367 486.722L565.441 486.723L565.402 487.564ZM595.255 487.564L602.718 487.564L602.757 486.722L595.294 486.722L595.255 487.564ZM603.306 487.129L603.306 482.094L602.169 482.123L602.169 487.157L603.306 487.129ZM603.306 472.025L603.306 461.957L602.169 461.985L602.169 472.054L603.306 472.025ZM603.306 451.888L603.306 441.819L602.169 441.848L602.169 451.917L603.306 451.888ZM603.306 431.75L603.306 421.682L602.169 421.71L602.169 431.779L603.306 431.75ZM603.306 411.613L603.306 401.544L602.169 401.573L602.169 411.641L603.306 411.613ZM603.306 391.475L603.306 381.406L602.169 381.435L602.169 391.504L603.306 391.475ZM603.306 371.338L603.306 361.269L602.169 361.297L602.169 371.366L603.306 371.338ZM603.306 351.2L603.306 341.131L602.169 341.16L602.169 351.229L603.306 351.2ZM603.306 331.062L603.306 320.994L602.169 321.022L602.169 331.091L603.306 331.062ZM603.306 310.925L603.306 305.891L602.169 305.919L602.169 310.954L603.306 310.925ZM602.737 487.143L602.718 487.564L603.306 487.564L603.306 487.129L602.737 487.143ZM603.139 305.598C602.917 305.439 602.557 305.448 602.335 305.618L598.718 308.384C598.496 308.554 598.496 308.82 598.718 308.978C598.94 309.137 599.3 309.128 599.522 308.958L602.737 306.499L605.953 308.796C606.175 308.955 606.535 308.946 606.757 308.776C606.979 308.606 606.979 308.34 606.757 308.181L603.139 305.598ZM543.013 487.564L550.476 487.564L550.515 486.723L543.052 486.723L543.013 487.564ZM565.402 487.564L580.329 487.564L580.367 486.722L565.441 486.723L565.402 487.564ZM595.255 487.564L602.718 487.564L602.757 486.722L595.294 486.722L595.255 487.564ZM603.306 487.129L603.306 482.094L602.169 482.123L602.169 487.157L603.306 487.129ZM603.306 472.025L603.306 461.957L602.169 461.985L602.169 472.054L603.306 472.025ZM603.306 451.888L603.306 441.819L602.169 441.848L602.169 451.917L603.306 451.888ZM603.306 431.75L603.306 421.682L602.169 421.71L602.169 431.779L603.306 431.75ZM603.306 411.613L603.306 401.544L602.169 401.573L602.169 411.641L603.306 411.613ZM603.306 391.475L603.306 381.406L602.169 381.435L602.169 391.504L603.306 391.475ZM603.306 371.338L603.306 361.269L602.169 361.297L602.169 371.366L603.306 371.338ZM603.306 351.2L603.306 341.131L602.169 341.16L602.169 351.229L603.306 351.2ZM603.306 331.062L603.306 320.994L602.169 321.022L602.169 331.091L603.306 331.062ZM603.306 310.925L603.306 305.891L602.169 305.919L602.169 310.954L603.306 310.925Z" fill="#FFFEE5"/>
<path d="M602.553 56.5716L603.065 56.5185L603.065 56.0836L602.609 56.0836L602.553 56.5716ZM318.107 56.2265C317.886 56.4171 317.851 56.7261 318.028 56.9166L320.911 60.0223C321.088 60.2129 321.41 60.2129 321.631 60.0223C321.851 59.8317 321.886 59.5227 321.709 59.3322L319.147 56.5716L322.339 53.811C322.559 53.6204 322.594 53.3114 322.417 53.1208C322.24 52.9302 321.918 52.9302 321.698 53.1208L318.107 56.2265ZM603.065 98.4233L603.065 93.1852L602.042 93.2913L602.042 98.5294L603.065 98.4233ZM603.065 82.709L603.065 72.2328L602.042 72.3389L602.042 82.8151L603.065 82.709ZM603.065 61.7566L603.065 56.5185L602.042 56.6246L602.042 61.8627L603.065 61.7566ZM602.609 56.0836L596.69 56.0836L596.578 57.0596L602.498 57.0596L602.609 56.0836ZM584.851 56.0836L573.012 56.0836L572.901 57.0596L584.74 57.0596L584.851 56.0836ZM561.174 56.0836L549.335 56.0836L549.224 57.0596L561.063 57.0596L561.174 56.0836ZM537.497 56.0836L525.658 56.0836L525.547 57.0596L537.385 57.0596L537.497 56.0836ZM513.819 56.0836L501.981 56.0836L501.87 57.0596L513.708 57.0596L513.819 56.0836ZM490.142 56.0836L478.304 56.0836L478.192 57.0596L490.031 57.0596L490.142 56.0836ZM466.465 56.0836L454.627 56.0836L454.515 57.0596L466.354 57.0596L466.465 56.0836ZM442.788 56.0836L430.949 56.0836L430.838 57.0596L442.677 57.0596L442.788 56.0836ZM419.111 56.0836L407.272 56.0836L407.161 57.0596L419 57.0596L419.111 56.0836ZM395.434 56.0836L383.595 56.0836L383.484 57.0596L395.322 57.0596L395.434 56.0836ZM371.756 56.0836L359.918 56.0836L359.807 57.0596L371.645 57.0596L371.756 56.0836ZM348.079 56.0836L336.241 56.0836L336.129 57.0596L347.968 57.0596L348.079 56.0836ZM324.402 56.0836L318.483 56.0836L318.372 57.0596L324.291 57.0596L324.402 56.0836ZM602.553 56.5716L603.065 56.5185L603.065 56.0836L602.609 56.0836L602.553 56.5716ZM318.107 56.2265C317.886 56.4171 317.851 56.7261 318.028 56.9166L320.911 60.0223C321.088 60.2129 321.41 60.2129 321.631 60.0223C321.851 59.8317 321.886 59.5227 321.709 59.3322L319.147 56.5716L322.339 53.811C322.559 53.6204 322.594 53.3114 322.417 53.1208C322.24 52.9302 321.918 52.9302 321.698 53.1208L318.107 56.2265ZM603.065 98.4233L603.065 93.1852L602.042 93.2913L602.042 98.5294L603.065 98.4233ZM603.065 82.709L603.065 72.2328L602.042 72.3389L602.042 82.8151L603.065 82.709ZM603.065 61.7566L603.065 56.5185L602.042 56.6246L602.042 61.8627L603.065 61.7566ZM602.609 56.0836L596.69 56.0836L596.578 57.0596L602.498 57.0596L602.609 56.0836ZM584.851 56.0836L573.012 56.0836L572.901 57.0596L584.74 57.0596L584.851 56.0836ZM561.174 56.0836L549.335 56.0836L549.224 57.0596L561.063 57.0596L561.174 56.0836ZM537.497 56.0836L525.658 56.0836L525.547 57.0596L537.385 57.0596L537.497 56.0836ZM513.819 56.0836L501.981 56.0836L501.87 57.0596L513.708 57.0596L513.819 56.0836ZM490.142 56.0836L478.304 56.0836L478.192 57.0596L490.031 57.0596L490.142 56.0836ZM466.465 56.0836L454.627 56.0836L454.515 57.0596L466.354 57.0596L466.465 56.0836ZM442.788 56.0836L430.949 56.0836L430.838 57.0596L442.677 57.0596L442.788 56.0836ZM419.111 56.0836L407.272 56.0836L407.161 57.0596L419 57.0596L419.111 56.0836ZM395.434 56.0836L383.595 56.0836L383.484 57.0596L395.322 57.0596L395.434 56.0836ZM371.756 56.0836L359.918 56.0836L359.807 57.0596L371.645 57.0596L371.756 56.0836ZM348.079 56.0836L336.241 56.0836L336.129 57.0596L347.968 57.0596L348.079 56.0836ZM324.402 56.0836L318.483 56.0836L318.372 57.0596L324.291 57.0596L324.402 56.0836Z" fill="#FFFEE5"/>
<path d="M129.908 50.1017V48.7617H145.908V50.1017H138.588V64.7617H137.228V50.1017H129.908ZM149.24 51.1017C150.8 49.5417 152.686 48.7617 154.9 48.7617C157.113 48.7617 159 49.5417 160.56 51.1017C162.12 52.6617 162.9 54.5484 162.9 56.7617C162.9 58.9751 162.12 60.8617 160.56 62.4217C159 63.9817 157.113 64.7617 154.9 64.7617C152.686 64.7617 150.8 63.9817 149.24 62.4217C147.68 60.8617 146.9 58.9751 146.9 56.7617C146.9 54.5484 147.68 52.6617 149.24 51.1017ZM151.56 62.5417C152.586 63.1284 153.7 63.4217 154.9 63.4217C156.1 63.4217 157.213 63.1284 158.24 62.5417C159.266 61.9417 160.073 61.1284 160.66 60.1017C161.26 59.0751 161.56 57.9617 161.56 56.7617C161.56 55.5617 161.26 54.4484 160.66 53.4217C160.073 52.3951 159.266 51.5884 158.24 51.0017C157.213 50.4017 156.1 50.1017 154.9 50.1017C153.7 50.1017 152.586 50.4017 151.56 51.0017C150.533 51.5884 149.72 52.3951 149.12 53.4217C148.533 54.4484 148.24 55.5617 148.24 56.7617C148.24 57.9617 148.533 59.0751 149.12 60.1017C149.72 61.1284 150.533 61.9417 151.56 62.5417ZM155.6 56.0617C155.8 56.2484 155.9 56.4817 155.9 56.7617C155.9 57.0417 155.8 57.2817 155.6 57.4817C155.413 57.6684 155.18 57.7617 154.9 57.7617C154.62 57.7617 154.38 57.6684 154.18 57.4817C153.993 57.2817 153.9 57.0417 153.9 56.7617C153.9 56.4817 153.993 56.2484 154.18 56.0617C154.38 55.8617 154.62 55.7617 154.9 55.7617C155.18 55.7617 155.413 55.8617 155.6 56.0617ZM169.24 51.1017C170.8 49.5417 172.686 48.7617 174.9 48.7617C177.113 48.7617 179 49.5417 180.56 51.1017C182.12 52.6617 182.9 54.5484 182.9 56.7617C182.9 58.9751 182.12 60.8617 180.56 62.4217C179 63.9817 177.113 64.7617 174.9 64.7617C172.686 64.7617 170.8 63.9817 169.24 62.4217C167.68 60.8617 166.9 58.9751 166.9 56.7617C166.9 54.5484 167.68 52.6617 169.24 51.1017ZM171.56 62.5417C172.586 63.1284 173.7 63.4217 174.9 63.4217C176.1 63.4217 177.213 63.1284 178.24 62.5417C179.266 61.9417 180.073 61.1284 180.66 60.1017C181.26 59.0751 181.56 57.9617 181.56 56.7617C181.56 55.5617 181.26 54.4484 180.66 53.4217C180.073 52.3951 179.266 51.5884 178.24 51.0017C177.213 50.4017 176.1 50.1017 174.9 50.1017C173.7 50.1017 172.586 50.4017 171.56 51.0017C170.533 51.5884 169.72 52.3951 169.12 53.4217C168.533 54.4484 168.24 55.5617 168.24 56.7617C168.24 57.9617 168.533 59.0751 169.12 60.1017C169.72 61.1284 170.533 61.9417 171.56 62.5417ZM175.6 56.0617C175.8 56.2484 175.9 56.4817 175.9 56.7617C175.9 57.0417 175.8 57.2817 175.6 57.4817C175.413 57.6684 175.18 57.7617 174.9 57.7617C174.62 57.7617 174.38 57.6684 174.18 57.4817C173.993 57.2817 173.9 57.0417 173.9 56.7617C173.9 56.4817 173.993 56.2484 174.18 56.0617C174.38 55.8617 174.62 55.7617 174.9 55.7617C175.18 55.7617 175.413 55.8617 175.6 56.0617ZM183.892 50.1017V48.7617H199.892V50.1017H192.572V64.7617H191.212V50.1017H183.892Z" fill="#FFFEE5"/>
<rect x="-0.500015" y="0.499998" width="300.713" height="328.804" rx="11.5" transform="matrix(-2.96326e-05 1 -1 -3.86095e-06 329.813 337.287)" stroke="#FFFEE5" stroke-dasharray="12 12"/>
<rect x="-0.500015" y="0.499998" width="59.1638" height="242.996" rx="11.5" transform="matrix(-3.02006e-05 1 -1 -3.78833e-06 286.809 369.762)" stroke="#FFFEE5" stroke-dasharray="12 12"/>
<path d="M105.748 404.251H108.26H109.22V405.323H105.748H96.4204V404.491V404.251V392.523H97.4924V404.251H105.748ZM112.121 403.451C110.873 402.203 110.249 400.693 110.249 398.923C110.249 397.152 110.873 395.643 112.121 394.395C113.369 393.147 114.878 392.523 116.649 392.523H123.049V393.595H116.649C115.273 393.595 114.078 394.059 113.065 394.987C112.062 395.904 111.491 397.035 111.353 398.379H123.049V399.467H111.353C111.491 400.811 112.062 401.947 113.065 402.875C114.078 403.792 115.273 404.251 116.649 404.251H123.049V405.323H116.649C114.878 405.323 113.369 404.699 112.121 403.451ZM128.121 403.451C126.873 402.203 126.249 400.693 126.249 398.923C126.249 397.152 126.873 395.643 128.121 394.395C129.369 393.147 130.878 392.523 132.649 392.523H139.049V393.595H132.649C131.689 393.595 130.798 393.835 129.977 394.315C129.155 394.784 128.505 395.429 128.025 396.251C127.555 397.072 127.321 397.963 127.321 398.923C127.321 399.883 127.555 400.773 128.025 401.595C128.505 402.416 129.155 403.067 129.977 403.547C130.798 404.016 131.689 404.251 132.649 404.251H137.977V399.467H134.457V398.379H139.049V405.323H132.649C130.878 405.323 129.369 404.699 128.121 403.451ZM144.121 403.451C142.873 402.203 142.249 400.693 142.249 398.923C142.249 397.152 142.873 395.643 144.121 394.395C145.369 393.147 146.878 392.523 148.649 392.523H155.049V393.595H148.649C147.273 393.595 146.078 394.059 145.065 394.987C144.062 395.904 143.491 397.035 143.353 398.379H155.049V399.467H143.353C143.491 400.811 144.062 401.947 145.065 402.875C146.078 403.792 147.273 404.251 148.649 404.251H155.049V405.323H148.649C146.878 405.323 145.369 404.699 144.121 403.451ZM160.121 394.395C161.369 393.147 162.878 392.523 164.649 392.523C166.419 392.523 167.929 393.147 169.177 394.395C170.425 395.643 171.049 397.152 171.049 398.923V405.323H169.977V398.923C169.977 397.963 169.737 397.072 169.257 396.251C168.787 395.429 168.142 394.784 167.321 394.315C166.499 393.835 165.609 393.595 164.649 393.595C163.689 393.595 162.798 393.835 161.977 394.315C161.155 394.784 160.505 395.429 160.025 396.251C159.555 397.072 159.321 397.963 159.321 398.923V405.323H158.249V398.923C158.249 397.152 158.873 395.643 160.121 394.395ZM180.649 392.523C182.419 392.523 183.929 393.147 185.177 394.395C186.425 395.643 187.049 397.152 187.049 398.923C187.049 400.693 186.425 402.203 185.177 403.451C183.929 404.699 182.419 405.323 180.649 405.323H174.249V398.379H175.321V404.251H180.649C181.609 404.251 182.499 404.016 183.321 403.547C184.142 403.067 184.787 402.416 185.257 401.595C185.737 400.773 185.977 399.883 185.977 398.923C185.977 397.963 185.737 397.072 185.257 396.251C184.787 395.429 184.142 394.784 183.321 394.315C182.499 393.835 181.609 393.595 180.649 393.595H174.249V392.523H180.649ZM188.077 405.323L195.277 392.523L202.461 405.323H201.149L195.277 394.843L189.389 405.323H188.077ZM218.455 395.995C218.455 396.603 218.305 397.168 218.007 397.691C217.719 398.203 217.329 398.613 216.839 398.923C217.329 399.232 217.719 399.648 218.007 400.171C218.305 400.683 218.455 401.243 218.455 401.851V405.323H217.383V401.851C217.383 401.189 217.148 400.629 216.679 400.171C216.209 399.701 215.644 399.467 214.983 399.467H206.727V405.323H205.655V392.523H214.983C215.943 392.523 216.759 392.864 217.431 393.547C218.113 394.219 218.455 395.035 218.455 395.995ZM206.727 393.595V398.379H214.983C215.644 398.379 216.209 398.149 216.679 397.691C217.148 397.221 217.383 396.656 217.383 395.995C217.383 395.333 217.148 394.768 216.679 394.299C216.209 393.829 215.644 393.595 214.983 393.595H206.727ZM233.383 393.067V392.523H234.455V393.067C234.455 394.165 234.193 395.189 233.671 396.139C233.159 397.077 232.455 397.84 231.559 398.427C230.663 399.013 229.676 399.349 228.599 399.435V405.323H227.511V399.435C226.433 399.349 225.447 399.013 224.551 398.427C223.655 397.84 222.945 397.077 222.423 396.139C221.911 395.189 221.655 394.165 221.655 393.067V392.523H222.727V393.067C222.727 394.027 222.961 394.917 223.431 395.739C223.911 396.549 224.561 397.195 225.383 397.675C226.204 398.144 227.095 398.379 228.055 398.379C229.015 398.379 229.905 398.144 230.727 397.675C231.548 397.195 232.193 396.549 232.663 395.739C233.143 394.917 233.383 394.027 233.383 393.067Z" fill="#FFFEE5"/>
<rect x="-0.500015" y="0.499998" width="59.1638" height="242.996" rx="11.5" transform="matrix(-3.05916e-05 1 -1 -3.73991e-06 286.648 458.213)" stroke="#FFFEE5" stroke-dasharray="12 12"/>
<path d="M136.046 491.901C134.798 490.653 134.174 489.144 134.174 487.373C134.174 485.603 134.798 484.093 136.046 482.845C137.294 481.597 138.803 480.973 140.574 480.973H146.974V482.045H140.574C139.614 482.045 138.723 482.285 137.902 482.765C137.08 483.235 136.43 483.88 135.95 484.701C135.48 485.523 135.246 486.413 135.246 487.373C135.246 488.333 135.48 489.224 135.95 490.045C136.43 490.867 137.08 491.517 137.902 491.997C138.723 492.467 139.614 492.701 140.574 492.701H146.974V493.773H140.574C138.803 493.773 137.294 493.149 136.046 491.901ZM161.902 486.829V480.973H162.974V493.773H161.902V487.917H151.246V493.773H150.174V480.973H151.246V486.829H161.902ZM166.174 493.773L173.374 480.973L180.558 493.773H179.246L173.374 483.293L167.486 493.773H166.174ZM190.152 480.973C191.922 480.973 193.432 481.597 194.68 482.845C195.928 484.093 196.552 485.603 196.552 487.373C196.552 489.144 195.928 490.653 194.68 491.901C193.432 493.149 191.922 493.773 190.152 493.773H183.752V486.829H184.824V492.701H190.152C191.112 492.701 192.002 492.467 192.824 491.997C193.645 491.517 194.29 490.867 194.76 490.045C195.24 489.224 195.48 488.333 195.48 487.373C195.48 486.413 195.24 485.523 194.76 484.701C194.29 483.88 193.645 483.235 192.824 482.765C192.002 482.285 191.112 482.045 190.152 482.045H183.752V480.973H190.152Z" fill="#FFFEE5"/>
<rect x="-0.500014" y="0.499998" width="59.1638" height="242.996" rx="11.5" transform="matrix(-2.76788e-05 1 -1 -4.13348e-06 286.648 546.664)" stroke="#FFFEE5" stroke-dasharray="12 12"/>
<path d="M126.424 571.688C127.672 570.44 129.181 569.816 130.952 569.816C132.723 569.816 134.232 570.44 135.48 571.688C136.728 572.936 137.352 574.445 137.352 576.216V582.616H136.28V576.216C136.28 575.256 136.04 574.365 135.56 573.544C135.091 572.722 134.445 572.077 133.624 571.608C132.803 571.128 131.912 570.888 130.952 570.888C129.992 570.888 129.101 571.128 128.28 571.608C127.459 572.077 126.808 572.722 126.328 573.544C125.859 574.365 125.624 575.256 125.624 576.216V582.616H124.552V576.216C124.552 574.445 125.176 572.936 126.424 571.688ZM142.424 571.688C143.672 570.44 145.181 569.816 146.952 569.816C148.723 569.816 150.232 570.44 151.48 571.688C152.728 572.936 153.352 574.445 153.352 576.216C153.352 577.986 152.728 579.496 151.48 580.744C150.232 581.992 148.723 582.616 146.952 582.616C145.181 582.616 143.672 581.992 142.424 580.744C141.176 579.496 140.552 577.986 140.552 576.216C140.552 574.445 141.176 572.936 142.424 571.688ZM144.28 580.84C145.101 581.309 145.992 581.544 146.952 581.544C147.912 581.544 148.803 581.309 149.624 580.84C150.445 580.36 151.091 579.709 151.56 578.888C152.04 578.066 152.28 577.176 152.28 576.216C152.28 575.256 152.04 574.365 151.56 573.544C151.091 572.722 150.445 572.077 149.624 571.608C148.803 571.128 147.912 570.888 146.952 570.888C145.992 570.888 145.101 571.128 144.28 571.608C143.459 572.077 142.808 572.722 142.328 573.544C141.859 574.365 141.624 575.256 141.624 576.216C141.624 577.176 141.859 578.066 142.328 578.888C142.808 579.709 143.459 580.36 144.28 580.84ZM147.512 575.656C147.672 575.805 147.752 575.992 147.752 576.216C147.752 576.44 147.672 576.632 147.512 576.792C147.363 576.941 147.176 577.016 146.952 577.016C146.728 577.016 146.536 576.941 146.376 576.792C146.227 576.632 146.152 576.44 146.152 576.216C146.152 575.992 146.227 575.805 146.376 575.656C146.536 575.496 146.728 575.416 146.952 575.416C147.176 575.416 147.363 575.496 147.512 575.656ZM169.352 573.288C169.352 573.896 169.203 574.461 168.904 574.984C168.616 575.496 168.227 575.906 167.736 576.216C168.227 576.525 168.616 576.941 168.904 577.464C169.203 577.976 169.352 578.536 169.352 579.144V582.616H168.28V579.144C168.28 578.482 168.045 577.922 167.576 577.464C167.107 576.994 166.541 576.76 165.88 576.76H157.624V582.616H156.552V569.816H165.88C166.84 569.816 167.656 570.157 168.328 570.84C169.011 571.512 169.352 572.328 169.352 573.288ZM157.624 570.888V575.672H165.88C166.541 575.672 167.107 575.442 167.576 574.984C168.045 574.514 168.28 573.949 168.28 573.288C168.28 572.626 168.045 572.061 167.576 571.592C167.107 571.122 166.541 570.888 165.88 570.888H157.624ZM183.496 569.816C184.595 569.816 185.533 570.21 186.312 571C187.101 571.778 187.496 572.717 187.496 573.816V582.616H186.424V573.816C186.424 573.016 186.136 572.328 185.56 571.752C184.995 571.176 184.307 570.888 183.496 570.888C182.685 570.888 181.992 571.176 181.416 571.752C180.851 572.328 180.568 573.016 180.568 573.816V582.616H179.48V573.816C179.48 573.016 179.192 572.328 178.616 571.752C178.051 571.176 177.363 570.888 176.552 570.888C175.741 570.888 175.048 571.176 174.472 571.752C173.907 572.328 173.624 573.016 173.624 573.816V582.616H172.552V573.816C172.552 572.717 172.941 571.778 173.72 571C174.509 570.21 175.453 569.816 176.552 569.816C177.288 569.816 177.96 569.997 178.568 570.36C179.187 570.722 179.672 571.213 180.024 571.832C180.376 571.213 180.856 570.722 181.464 570.36C182.083 569.997 182.76 569.816 183.496 569.816ZM202.421 570.36V569.816H203.493V570.36C203.493 571.458 203.231 572.482 202.709 573.432C202.197 574.37 201.493 575.133 200.597 575.72C199.701 576.306 198.714 576.642 197.637 576.728V582.616H196.549V576.728C195.471 576.642 194.485 576.306 193.589 575.72C192.693 575.133 191.983 574.37 191.461 573.432C190.949 572.482 190.693 571.458 190.693 570.36V569.816H191.765V570.36C191.765 571.32 191.999 572.21 192.469 573.032C192.949 573.842 193.599 574.488 194.421 574.968C195.242 575.437 196.133 575.672 197.093 575.672C198.053 575.672 198.943 575.437 199.765 574.968C200.586 574.488 201.231 573.842 201.701 573.032C202.181 572.21 202.421 571.32 202.421 570.36Z" fill="#FFFEE5"/>
<rect x="-0.500009" y="0.499997" width="112.346" height="264.335" rx="11.5" transform="matrix(-1.71045e-05 1 -1 -6.68888e-06 735.87 160.24)" stroke="#FFFEE5" stroke-dasharray="12 12"/>
<path d="M537.002 211.108C538.25 209.86 539.759 209.236 541.53 209.236C543.301 209.236 544.81 209.86 546.058 211.108C547.306 212.356 547.93 213.865 547.93 215.636C547.93 217.406 547.306 218.916 546.058 220.164C544.81 221.412 543.301 222.036 541.53 222.036C539.759 222.036 538.25 221.412 537.002 220.164C535.754 218.916 535.13 217.406 535.13 215.636C535.13 213.865 535.754 212.356 537.002 211.108ZM538.858 220.26C539.679 220.729 540.57 220.964 541.53 220.964C542.49 220.964 543.381 220.729 544.202 220.26C545.023 219.78 545.669 219.129 546.138 218.308C546.618 217.486 546.858 216.596 546.858 215.636C546.858 214.676 546.618 213.785 546.138 212.964C545.669 212.142 545.023 211.497 544.202 211.028C543.381 210.548 542.49 210.308 541.53 210.308C540.57 210.308 539.679 210.548 538.858 211.028C538.037 211.497 537.386 212.142 536.906 212.964C536.437 213.785 536.202 214.676 536.202 215.636C536.202 216.596 536.437 217.486 536.906 218.308C537.386 219.129 538.037 219.78 538.858 220.26ZM542.09 215.076C542.25 215.225 542.33 215.412 542.33 215.636C542.33 215.86 542.25 216.052 542.09 216.212C541.941 216.361 541.754 216.436 541.53 216.436C541.306 216.436 541.114 216.361 540.954 216.212C540.805 216.052 540.73 215.86 540.73 215.636C540.73 215.412 540.805 215.225 540.954 215.076C541.114 214.916 541.306 214.836 541.53 214.836C541.754 214.836 541.941 214.916 542.09 215.076ZM553.002 211.108C554.25 209.86 555.759 209.236 557.53 209.236C559.301 209.236 560.81 209.86 562.058 211.108C563.306 212.356 563.93 213.865 563.93 215.636V222.036H562.858V215.636C562.858 214.676 562.618 213.785 562.138 212.964C561.669 212.142 561.023 211.497 560.202 211.028C559.381 210.548 558.49 210.308 557.53 210.308C556.57 210.308 555.679 210.548 554.858 211.028C554.037 211.497 553.386 212.142 552.906 212.964C552.437 213.785 552.202 214.676 552.202 215.636V222.036H551.13V215.636C551.13 213.865 551.754 212.356 553.002 211.108ZM567.13 216.18V215.092H571.402V216.18H567.13ZM576.471 220.164C575.223 218.916 574.599 217.406 574.599 215.636C574.599 213.865 575.223 212.356 576.471 211.108C577.719 209.86 579.228 209.236 580.999 209.236H587.399V210.308H580.999C580.039 210.308 579.148 210.548 578.327 211.028C577.506 211.497 576.855 212.142 576.375 212.964C575.906 213.785 575.671 214.676 575.671 215.636C575.671 216.596 575.906 217.486 576.375 218.308C576.855 219.129 577.506 219.78 578.327 220.26C579.148 220.729 580.039 220.964 580.999 220.964H587.399V222.036H580.999C579.228 222.036 577.719 221.412 576.471 220.164ZM602.327 215.092V209.236H603.399V222.036H602.327V216.18H591.671V222.036H590.599V209.236H591.671V215.092H602.327ZM606.599 222.036L613.799 209.236L620.983 222.036H619.671L613.799 211.556L607.911 222.036H606.599ZM627.393 210.308H626.321V220.964H627.393V222.036H624.177V220.964H625.249V210.308H624.177V209.236H627.393V210.308ZM632.471 211.108C633.719 209.86 635.228 209.236 636.999 209.236C638.77 209.236 640.279 209.86 641.527 211.108C642.775 212.356 643.399 213.865 643.399 215.636V222.036H642.327V215.636C642.327 214.676 642.087 213.785 641.607 212.964C641.138 212.142 640.492 211.497 639.671 211.028C638.85 210.548 637.959 210.308 636.999 210.308C636.039 210.308 635.148 210.548 634.327 211.028C633.506 211.497 632.855 212.142 632.375 212.964C631.906 213.785 631.671 214.676 631.671 215.636V222.036H630.599V215.636C630.599 213.865 631.223 212.356 632.471 211.108ZM653.005 222.036L660.205 209.236L667.389 222.036H666.077L660.205 211.556L654.317 222.036H653.005ZM670.583 222.036V209.236H671.655V222.036H670.583Z" fill="#FFFEE5"/>
<path d="M102.508 139.129V138.057H115.308V139.129H109.452V150.857H108.364V139.129H102.508ZM131.308 141.529C131.308 142.137 131.158 142.703 130.86 143.225C130.572 143.737 130.182 144.148 129.692 144.457C130.182 144.767 130.572 145.183 130.86 145.705C131.158 146.217 131.308 146.777 131.308 147.385V150.857H130.236V147.385C130.236 146.724 130.001 146.164 129.532 145.705C129.062 145.236 128.497 145.001 127.836 145.001H119.58V150.857H118.508V138.057H127.836C128.796 138.057 129.612 138.399 130.284 139.081C130.966 139.753 131.308 140.569 131.308 141.529ZM119.58 139.129V143.913H127.836C128.497 143.913 129.062 143.684 129.532 143.225C130.001 142.756 130.236 142.191 130.236 141.529C130.236 140.868 130.001 140.303 129.532 139.833C129.062 139.364 128.497 139.129 127.836 139.129H119.58ZM134.508 150.857L141.708 138.057L148.892 150.857H147.58L141.708 140.377L135.82 150.857H134.508ZM153.958 139.929C155.206 138.681 156.715 138.057 158.486 138.057C160.257 138.057 161.766 138.681 163.014 139.929C164.262 141.177 164.886 142.687 164.886 144.457V150.857H163.814V144.457C163.814 143.497 163.574 142.607 163.094 141.785C162.625 140.964 161.979 140.319 161.158 139.849C160.337 139.369 159.446 139.129 158.486 139.129C157.526 139.129 156.635 139.369 155.814 139.849C154.993 140.319 154.342 140.964 153.862 141.785C153.393 142.607 153.158 143.497 153.158 144.457V150.857H152.086V144.457C152.086 142.687 152.71 141.177 153.958 139.929ZM171.558 138.057H180.886V139.129H171.558C170.897 139.129 170.331 139.364 169.862 139.833C169.393 140.303 169.158 140.868 169.158 141.529C169.158 142.191 169.393 142.756 169.862 143.225C170.331 143.684 170.897 143.913 171.558 143.913H177.414C178.374 143.913 179.19 144.255 179.862 144.937C180.545 145.609 180.886 146.425 180.886 147.385C180.886 148.345 180.545 149.167 179.862 149.849C179.19 150.521 178.374 150.857 177.414 150.857H168.086V149.785H177.414C178.075 149.785 178.641 149.551 179.11 149.081C179.579 148.612 179.814 148.047 179.814 147.385C179.814 146.724 179.579 146.164 179.11 145.705C178.641 145.236 178.075 145.001 177.414 145.001H171.558C170.598 145.001 169.777 144.665 169.094 143.993C168.422 143.311 168.086 142.489 168.086 141.529C168.086 140.569 168.422 139.753 169.094 139.081C169.777 138.399 170.598 138.057 171.558 138.057ZM193.414 138.057H196.886V139.129H195.926H193.414H185.158V143.913H193.414V145.001H185.158V150.857H184.086V139.129V138.889V138.057H193.414ZM200.364 148.985C199.116 147.737 198.492 146.228 198.492 144.457C198.492 142.687 199.116 141.177 200.364 139.929C201.612 138.681 203.121 138.057 204.892 138.057H211.292V139.129H204.892C203.516 139.129 202.321 139.593 201.308 140.521C200.305 141.439 199.735 142.569 199.596 143.913H211.292V145.001H199.596C199.735 146.345 200.305 147.481 201.308 148.409C202.321 149.327 203.516 149.785 204.892 149.785H211.292V150.857H204.892C203.121 150.857 201.612 150.233 200.364 148.985ZM227.292 141.529C227.292 142.137 227.143 142.703 226.844 143.225C226.556 143.737 226.167 144.148 225.676 144.457C226.167 144.767 226.556 145.183 226.844 145.705C227.143 146.217 227.292 146.777 227.292 147.385V150.857H226.22V147.385C226.22 146.724 225.985 146.164 225.516 145.705C225.047 145.236 224.481 145.001 223.82 145.001H215.564V150.857H214.492V138.057H223.82C224.78 138.057 225.596 138.399 226.268 139.081C226.951 139.753 227.292 140.569 227.292 141.529ZM215.564 139.129V143.913H223.82C224.481 143.913 225.047 143.684 225.516 143.225C225.985 142.756 226.22 142.191 226.22 141.529C226.22 140.868 225.985 140.303 225.516 139.833C225.047 139.364 224.481 139.129 223.82 139.129H215.564Z" fill="#FFFEE5"/>
<path d="M410.907 484.434C410.907 485.042 410.758 485.607 410.459 486.13C410.171 486.642 409.782 487.052 409.291 487.362C409.782 487.671 410.171 488.087 410.459 488.61C410.758 489.122 410.907 489.682 410.907 490.29V493.762H409.835V490.29C409.835 489.628 409.601 489.068 409.131 488.61C408.662 488.14 408.097 487.906 407.435 487.906H399.179V493.762H398.107V480.962H407.435C408.395 480.962 409.211 481.303 409.883 481.986C410.566 482.658 410.907 483.474 410.907 484.434ZM399.179 482.034V486.818H407.435C408.097 486.818 408.662 486.588 409.131 486.13C409.601 485.66 409.835 485.095 409.835 484.434C409.835 483.772 409.601 483.207 409.131 482.738C408.662 482.268 408.097 482.034 407.435 482.034H399.179ZM414.107 493.762L421.307 480.962L428.491 493.762H427.179L421.307 483.282L415.419 493.762H414.107ZM433.557 482.834C434.805 481.586 436.315 480.962 438.085 480.962C439.856 480.962 441.365 481.586 442.613 482.834C443.861 484.082 444.485 485.591 444.485 487.362V493.762H443.413V487.362C443.413 486.402 443.173 485.511 442.693 484.69C442.224 483.868 441.579 483.223 440.757 482.754C439.936 482.274 439.045 482.034 438.085 482.034C437.125 482.034 436.235 482.274 435.413 482.754C434.592 483.223 433.941 483.868 433.461 484.69C432.992 485.511 432.757 486.402 432.757 487.362V493.762H431.685V487.362C431.685 485.591 432.309 484.082 433.557 482.834ZM454.085 480.962C455.856 480.962 457.365 481.586 458.613 482.834C459.861 484.082 460.485 485.591 460.485 487.362C460.485 489.132 459.861 490.642 458.613 491.89C457.365 493.138 455.856 493.762 454.085 493.762H447.685V486.818H448.757V492.69H454.085C455.045 492.69 455.936 492.455 456.757 491.986C457.579 491.506 458.224 490.855 458.693 490.034C459.173 489.212 459.413 488.322 459.413 487.362C459.413 486.402 459.173 485.511 458.693 484.69C458.224 483.868 457.579 483.223 456.757 482.754C455.936 482.274 455.045 482.034 454.085 482.034H447.685V480.962H454.085ZM465.557 482.834C466.805 481.586 468.315 480.962 470.085 480.962C471.856 480.962 473.365 481.586 474.613 482.834C475.861 484.082 476.485 485.591 476.485 487.362C476.485 489.132 475.861 490.642 474.613 491.89C473.365 493.138 471.856 493.762 470.085 493.762C468.315 493.762 466.805 493.138 465.557 491.89C464.309 490.642 463.685 489.132 463.685 487.362C463.685 485.591 464.309 484.082 465.557 482.834ZM467.413 491.986C468.235 492.455 469.125 492.69 470.085 492.69C471.045 492.69 471.936 492.455 472.757 491.986C473.579 491.506 474.224 490.855 474.693 490.034C475.173 489.212 475.413 488.322 475.413 487.362C475.413 486.402 475.173 485.511 474.693 484.69C474.224 483.868 473.579 483.223 472.757 482.754C471.936 482.274 471.045 482.034 470.085 482.034C469.125 482.034 468.235 482.274 467.413 482.754C466.592 483.223 465.941 483.868 465.461 484.69C464.992 485.511 464.757 486.402 464.757 487.362C464.757 488.322 464.992 489.212 465.461 490.034C465.941 490.855 466.592 491.506 467.413 491.986ZM470.645 486.802C470.805 486.951 470.885 487.138 470.885 487.362C470.885 487.586 470.805 487.778 470.645 487.938C470.496 488.087 470.309 488.162 470.085 488.162C469.861 488.162 469.669 488.087 469.509 487.938C469.36 487.778 469.285 487.586 469.285 487.362C469.285 487.138 469.36 486.951 469.509 486.802C469.669 486.642 469.861 486.562 470.085 486.562C470.309 486.562 470.496 486.642 470.645 486.802ZM490.629 480.962C491.728 480.962 492.667 481.356 493.445 482.146C494.235 482.924 494.629 483.863 494.629 484.962V493.762H493.557V484.962C493.557 484.162 493.269 483.474 492.693 482.898C492.128 482.322 491.44 482.034 490.629 482.034C489.819 482.034 489.125 482.322 488.549 482.898C487.984 483.474 487.701 484.162 487.701 484.962V493.762H486.613V484.962C486.613 484.162 486.325 483.474 485.749 482.898C485.184 482.322 484.496 482.034 483.685 482.034C482.875 482.034 482.181 482.322 481.605 482.898C481.04 483.474 480.757 484.162 480.757 484.962V493.762H479.685V484.962C479.685 483.863 480.075 482.924 480.853 482.146C481.643 481.356 482.587 480.962 483.685 480.962C484.421 480.962 485.093 481.143 485.701 481.506C486.32 481.868 486.805 482.359 487.157 482.978C487.509 482.359 487.989 481.868 488.597 481.506C489.216 481.143 489.893 480.962 490.629 480.962Z" fill="#FFFEE5"/>
<path d="M545.651 130.838V124.438H546.723V130.838C546.723 132.609 546.099 134.118 544.851 135.366C543.603 136.614 542.094 137.238 540.323 137.238C538.553 137.238 537.043 136.614 535.795 135.366C534.547 134.118 533.923 132.609 533.923 130.838V124.438H534.995V130.838C534.995 131.798 535.23 132.689 535.699 133.51C536.179 134.332 536.83 134.982 537.651 135.462C538.473 135.932 539.363 136.166 540.323 136.166C541.283 136.166 542.174 135.932 542.995 135.462C543.817 134.982 544.462 134.332 544.931 133.51C545.411 132.689 545.651 131.798 545.651 130.838ZM551.795 126.31C553.043 125.062 554.553 124.438 556.323 124.438C558.094 124.438 559.603 125.062 560.851 126.31C562.099 127.558 562.723 129.068 562.723 130.838V137.238H561.651V130.838C561.651 129.878 561.411 128.988 560.931 128.166C560.462 127.345 559.817 126.7 558.995 126.23C558.174 125.75 557.283 125.51 556.323 125.51C555.363 125.51 554.473 125.75 553.651 126.23C552.83 126.7 552.179 127.345 551.699 128.166C551.23 128.988 550.995 129.878 550.995 130.838V137.238H549.923V130.838C549.923 129.068 550.547 127.558 551.795 126.31ZM569.139 125.51H568.067V136.166H569.139V137.238H565.923V136.166H566.995V125.51H565.923V124.438H569.139V125.51ZM575.529 125.302C576.511 124.726 577.583 124.438 578.745 124.438C579.908 124.438 580.98 124.726 581.961 125.302C582.943 125.868 583.716 126.641 584.281 127.622C584.857 128.604 585.145 129.676 585.145 130.838C585.145 130.838 585.145 130.844 585.145 130.854C585.145 131.718 584.98 132.54 584.649 133.318C584.319 134.097 583.86 134.78 583.273 135.366L585.145 137.238H583.625L582.441 136.054C581.343 136.844 580.111 137.238 578.745 137.238C577.583 137.238 576.511 136.956 575.529 136.39C574.548 135.814 573.769 135.036 573.193 134.054C572.628 133.073 572.345 132.001 572.345 130.838C572.345 129.676 572.628 128.604 573.193 127.622C573.769 126.641 574.548 125.868 575.529 125.302ZM582.505 134.598C582.996 134.108 583.38 133.542 583.657 132.902C583.935 132.252 584.073 131.564 584.073 130.838C584.073 129.878 583.833 128.988 583.353 128.166C582.884 127.345 582.239 126.7 581.417 126.23C580.596 125.75 579.705 125.51 578.745 125.51C577.785 125.51 576.895 125.75 576.073 126.23C575.252 126.7 574.601 127.345 574.121 128.166C573.652 128.988 573.417 129.878 573.417 130.838C573.417 131.798 573.652 132.689 574.121 133.51C574.601 134.332 575.252 134.982 576.073 135.462C576.895 135.932 577.785 136.166 578.745 136.166C578.756 136.166 578.761 136.166 578.761 136.166C579.817 136.166 580.788 135.873 581.673 135.286L579.881 133.494L580.633 132.726L582.505 134.598ZM600.073 130.838V124.438H601.145V130.838C601.145 132.609 600.521 134.118 599.273 135.366C598.025 136.614 596.516 137.238 594.745 137.238C592.975 137.238 591.465 136.614 590.217 135.366C588.969 134.118 588.345 132.609 588.345 130.838V124.438H589.417V130.838C589.417 131.798 589.652 132.689 590.121 133.51C590.601 134.332 591.252 134.982 592.073 135.462C592.895 135.932 593.785 136.166 594.745 136.166C595.705 136.166 596.596 135.932 597.417 135.462C598.239 134.982 598.884 134.332 599.353 133.51C599.833 132.689 600.073 131.798 600.073 130.838ZM606.217 135.366C604.969 134.118 604.345 132.609 604.345 130.838C604.345 129.068 604.969 127.558 606.217 126.31C607.465 125.062 608.975 124.438 610.745 124.438H617.145V125.51H610.745C609.369 125.51 608.175 125.974 607.161 126.902C606.159 127.82 605.588 128.95 605.449 130.294H617.145V131.382H605.449C605.588 132.726 606.159 133.862 607.161 134.79C608.175 135.708 609.369 136.166 610.745 136.166H617.145V137.238H610.745C608.975 137.238 607.465 136.614 606.217 135.366ZM628.623 126.31C629.871 125.062 631.381 124.438 633.151 124.438C634.922 124.438 636.431 125.062 637.679 126.31C638.927 127.558 639.551 129.068 639.551 130.838V137.238H638.479V130.838C638.479 129.878 638.239 128.988 637.759 128.166C637.29 127.345 636.645 126.7 635.823 126.23C635.002 125.75 634.111 125.51 633.151 125.51C632.191 125.51 631.301 125.75 630.479 126.23C629.658 126.7 629.007 127.345 628.527 128.166C628.058 128.988 627.823 129.878 627.823 130.838V137.238H626.751V130.838C626.751 129.068 627.375 127.558 628.623 126.31ZM642.751 130.294H652.079V131.382H643.823V137.238H642.751V130.294ZM655.551 125.51H642.751V124.438H655.551V125.51ZM658.751 125.51V124.438H671.551V125.51H665.695V137.238H664.607V125.51H658.751Z" fill="#FFFEE5"/>
</svg>
